<svg width="261" height="267" viewBox="0 0 261 267" fill="none" xmlns="http://www.w3.org/2000/svg">
<path d="M13.9432 65.1182C30.212 33.5012 60.3874 9.58113 98.003 6.2145C123.862 3.95423 149.634 11.4231 170.294 27.1644C180.559 35.093 189.68 45.1868 195.738 56.7077C202.691 69.9425 204.719 85.202 211.873 98.3758C220.774 114.751 237.445 121.503 248.697 135.659C257.933 147.314 261.106 162.927 260.046 177.741C258.11 204.839 242.261 230.571 218.948 244.458C199.251 256.241 175.505 259.467 152.582 258.4C117.267 256.753 82.1116 245.092 54.2987 223.24C26.4858 201.387 6.49676 169.081 1.75979 133.988C-1.45501 110.141 3.19672 85.9583 13.9432 65.1182Z" fill="#92E3A9"/>
<path opacity="0.7" d="M13.9432 65.1182C30.212 33.5012 60.3874 9.58113 98.003 6.2145C123.862 3.95423 149.634 11.4231 170.294 27.1644C180.559 35.093 189.68 45.1868 195.738 56.7077C202.691 69.9425 204.719 85.202 211.873 98.3758C220.774 114.751 237.445 121.503 248.697 135.659C257.933 147.314 261.106 162.927 260.046 177.741C258.11 204.839 242.261 230.571 218.948 244.458C199.251 256.241 175.505 259.467 152.582 258.4C117.267 256.753 82.1116 245.092 54.2987 223.24C26.4858 201.387 6.49676 169.081 1.75979 133.988C-1.45501 110.141 3.19672 85.9583 13.9432 65.1182Z" fill="white"/>
<path d="M3.19629 76.6756C3.90866 79.5238 3.55552 74.2787 4.96808 67.8626C6.38065 61.4465 8.78567 64.0447 8.78567 64.0447" stroke="#263238" stroke-linecap="round" stroke-linejoin="round"/>
<path d="M2.77637 70.119L7.19064 68.3076" stroke="#263238" stroke-linecap="round" stroke-linejoin="round"/>
<path d="M10.8428 66.1309C10.8428 66.1309 8.20038 71.6199 12.1824 73.9253" stroke="#263238" stroke-linecap="round" stroke-linejoin="round"/>
<path d="M14.5889 64.5938C14.5889 64.5938 18.9422 67.0333 16.2145 72.2662" stroke="#263238" stroke-linecap="round" stroke-linejoin="round"/>
<path d="M11.5986 67.9854L14.7221 70.2664" stroke="#263238" stroke-linecap="round" stroke-linejoin="round"/>
<path d="M14.046 66.9785L11.6045 70.8696" stroke="#263238" stroke-linecap="round" stroke-linejoin="round"/>
<path d="M28.0774 125.388C28.6716 121.762 26.2184 118.339 22.5982 117.744C18.9779 117.149 15.5615 119.606 14.9674 123.233C14.3732 126.859 16.8264 130.281 20.4466 130.876C24.0669 131.472 27.4833 129.014 28.0774 125.388Z" stroke="#263238" stroke-linecap="round" stroke-linejoin="round"/>
<path d="M34.856 132.902C33.6716 133.754 32.2615 134.235 30.804 134.285C29.3466 134.335 27.9071 133.95 26.6678 133.18C25.4285 132.41 24.4449 131.289 23.8415 129.959C23.2381 128.63 23.0419 127.15 23.2778 125.709C23.5136 124.267 24.171 122.928 25.1667 121.861C26.1623 120.793 27.4516 120.046 28.8715 119.712C30.2913 119.379 31.778 119.475 33.1434 119.988C34.5089 120.501 35.6918 121.408 36.5426 122.595C37.1082 123.382 37.5133 124.273 37.7347 125.218C37.9561 126.162 37.9894 127.141 37.8328 128.098C37.6761 129.056 37.3326 129.973 36.8218 130.797C36.311 131.621 35.643 132.336 34.856 132.902Z" stroke="#263238" stroke-linecap="round" stroke-linejoin="round"/>
<path d="M27.5753 121.564L24.5127 122.656" stroke="#263238" stroke-linecap="round" stroke-linejoin="round"/>
<path d="M28.0024 122.826L23.6064 124.418" stroke="#263238" stroke-linecap="round" stroke-linejoin="round"/>
<path d="M28.1584 124.352L23.251 126.242" stroke="#263238" stroke-linecap="round" stroke-linejoin="round"/>
<path d="M27.8121 126.432L23.3369 128.481" stroke="#263238" stroke-linecap="round" stroke-linejoin="round"/>
<path d="M27.0276 128.029L23.624 129.444" stroke="#263238" stroke-linecap="round" stroke-linejoin="round"/>
<path d="M24.7317 114.172C24.5368 113.592 22.3814 113.183 22.2962 114.781C22.211 116.379 24.5673 115.056 25.237 114.172C25.237 114.172 24.0193 115.818 24.5307 116.141" stroke="#263238" stroke-linecap="round" stroke-linejoin="round"/>
<path d="M36.6843 116.16L34.7725 120.143C34.7725 120.143 35.7284 118.148 36.7513 118.313C38.0116 118.539 37.1714 120.606 35.6492 119.844" stroke="#263238" stroke-linecap="round" stroke-linejoin="round"/>
<path d="M244.716 181.182L247.718 184.03" stroke="#263238" stroke-linecap="round" stroke-linejoin="round"/>
<path d="M247.715 180.443L245.2 184.206" stroke="#263238" stroke-linecap="round" stroke-linejoin="round"/>
<path d="M250.677 181.523L253.678 180.4" stroke="#263238" stroke-linecap="round" stroke-linejoin="round"/>
<path d="M255.12 177.266L256.947 178.882" stroke="#263238" stroke-linecap="round" stroke-linejoin="round"/>
<path d="M258.346 175.314L256.032 183.274" stroke="#263238" stroke-linecap="round" stroke-linejoin="round"/>
<path d="M118.229 136.513L126.309 130.944L137.007 131.695L137.677 145.283L129.822 150.906L120.129 150.199L118.229 136.513Z" stroke="#263238" stroke-linecap="round" stroke-linejoin="round"/>
<path d="M120.128 150.198L127.952 144.557L137.675 145.282" stroke="#263238" stroke-linecap="round" stroke-linejoin="round"/>
<path d="M127.954 144.557L126.31 130.944" stroke="#263238" stroke-linecap="round" stroke-linejoin="round"/>
<path d="M118.229 136.513L128.903 137.751L137.007 131.694" stroke="#263238" stroke-linecap="round" stroke-linejoin="round"/>
<path d="M128.903 137.751L129.823 150.906" stroke="#263238" stroke-linecap="round" stroke-linejoin="round"/>
<path d="M212.53 90.8623L208.95 102.005L220.092 100.499L212.53 90.8623Z" stroke="#263238" stroke-linecap="round" stroke-linejoin="round"/>
<path d="M212.53 90.8623L214.521 101.188" stroke="#263238" stroke-linecap="round" stroke-linejoin="round"/>
<path d="M214.204 99.5345L215.507 99.3271L215.812 101.078" stroke="#263238" stroke-linecap="round" stroke-linejoin="round"/>
<path d="M72.2119 192.824L77.783 195.569" stroke="#263238" stroke-linecap="round" stroke-linejoin="round"/>
<path d="M75.9807 190.738L74.3916 196.563" stroke="#263238" stroke-linecap="round" stroke-linejoin="round"/>
<path d="M76.7529 187.896C76.845 187.802 76.9574 187.731 77.0814 187.688C77.2054 187.645 77.3377 187.631 77.468 187.647C77.5982 187.664 77.7229 187.71 77.8322 187.783C77.9416 187.856 78.0327 187.953 78.0985 188.067C78.6526 188.951 77.5566 190.787 77.5566 190.787L79.7912 189.939" stroke="#263238" stroke-linecap="round" stroke-linejoin="round"/>
<path d="M115.903 1C121.219 3.98849 115.13 11.3072 115.13 15.5765C115.13 19.8458 121.219 19.2359 124.263 20.4557C125.481 20.4557 127.916 20.4557 127.849 23.56" stroke="#263238" stroke-linecap="round" stroke-linejoin="round"/>
<path d="M109.979 4.86719C110.905 9.91102 116.677 8.12403 120.227 9.27673C126.315 11.2589 122.936 17.553 121.116 21.3527C120.026 23.6276 118.948 26.8051 120.89 28.9641" stroke="#263238" stroke-linecap="round" stroke-linejoin="round"/>
<path d="M110.759 6.82442L117.097 1.54883" stroke="#263238" stroke-linecap="round" stroke-linejoin="round"/>
<path d="M113.247 8.39791L118.014 4.43359" stroke="#263238" stroke-linecap="round" stroke-linejoin="round"/>
<path d="M116.05 12.4049L120.08 9.2334" stroke="#263238" stroke-linecap="round" stroke-linejoin="round"/>
<path d="M115.216 17.1557L123.101 11.4775" stroke="#263238" stroke-linecap="round" stroke-linejoin="round"/>
<path d="M118.235 19.3695L123.727 15.332" stroke="#263238" stroke-linecap="round" stroke-linejoin="round"/>
<path d="M120.573 27.9514L127.435 22.3525" stroke="#263238" stroke-linecap="round" stroke-linejoin="round"/>
<path d="M120.743 23.5477L125.218 20.3945" stroke="#263238" stroke-linecap="round" stroke-linejoin="round"/>
<path d="M31.158 195.867C37.6959 193.247 40.876 185.815 38.2611 179.266C35.6461 172.717 28.2263 169.531 21.6884 172.151C15.1506 174.77 11.9704 182.203 14.5854 188.751C17.2003 195.3 24.6202 198.486 31.158 195.867Z" stroke="#263238" stroke-linecap="round" stroke-linejoin="round"/>
<path d="M29.6206 171.655C34.0653 166.428 37.8463 163.47 39.3015 164.428C41.5178 165.892 37.5419 175.845 30.4243 186.658C23.3066 197.472 15.7384 205.059 13.5465 203.595C12.0853 202.632 13.3152 197.984 16.3595 191.836" stroke="#263238" stroke-linecap="round" stroke-linejoin="round"/>
<path d="M13.9359 186.628C7.73768 184.847 3.80442 182.761 4.0297 181.096C4.41328 178.468 15.0989 177.876 27.8972 179.773C40.6955 181.67 50.7418 185.335 50.3582 187.933C50.0903 189.763 44.8784 190.592 37.4868 190.318" stroke="#263238" stroke-linecap="round" stroke-linejoin="round"/>
<path d="M15.5629 177.382C10.8868 168.929 8.54879 162.317 10.1379 161.305C12.2142 159.957 20.2633 168.703 28.1116 180.822C35.9599 192.94 40.636 203.894 38.5536 205.217C37.1776 206.114 33.1895 202.589 28.3734 196.587" stroke="#263238" stroke-linecap="round" stroke-linejoin="round"/>
<path d="M41.0987 169.96C40.8717 170.306 40.5472 170.578 40.1662 170.74C39.7852 170.902 39.3648 170.948 38.9581 170.87C38.5514 170.793 38.1766 170.597 37.8811 170.307C37.5855 170.017 37.3824 169.645 37.2975 169.239C37.2126 168.834 37.2496 168.412 37.4039 168.027C37.5581 167.642 37.8228 167.312 38.1643 167.078C38.5059 166.843 38.9091 166.716 39.323 166.711C39.7369 166.706 40.143 166.824 40.4899 167.051C40.721 167.201 40.9201 167.396 41.0758 167.624C41.2315 167.852 41.3408 168.108 41.3974 168.379C41.4539 168.649 41.4567 168.928 41.4054 169.199C41.3542 169.47 41.25 169.729 41.0987 169.96Z" fill="#263238"/>
<path d="M34.1632 202.094C33.9362 202.441 33.6117 202.713 33.2307 202.875C32.8497 203.037 32.4293 203.082 32.0226 203.005C31.6159 202.928 31.2411 202.732 30.9455 202.442C30.6499 202.152 30.4469 201.78 30.3619 201.374C30.277 200.968 30.314 200.547 30.4683 200.162C30.6226 199.777 30.8872 199.447 31.2288 199.212C31.5704 198.978 31.9736 198.851 32.3875 198.846C32.8014 198.841 33.2074 198.959 33.5543 199.185C34.0197 199.491 34.3452 199.968 34.4593 200.514C34.5735 201.059 34.467 201.628 34.1632 202.094Z" fill="#263238"/>
<path d="M22.9777 180.303C22.7506 180.65 22.4261 180.922 22.0451 181.084C21.6641 181.246 21.2438 181.291 20.837 181.214C20.4303 181.137 20.0555 180.941 19.76 180.651C19.4644 180.361 19.2613 179.989 19.1764 179.583C19.0915 179.177 19.1285 178.755 19.2828 178.371C19.437 177.986 19.7017 177.656 20.0432 177.421C20.3848 177.187 20.788 177.06 21.2019 177.055C21.6158 177.05 22.0219 177.168 22.3688 177.394C22.8329 177.701 23.1573 178.178 23.2713 178.723C23.3854 179.268 23.2798 179.836 22.9777 180.303Z" fill="#263238"/>
<path d="M156.501 89.0014H163.68L167.266 82.7805L163.68 76.5596H156.501L152.915 82.7805L156.501 89.0014Z" stroke="#263238" stroke-linecap="round" stroke-linejoin="round"/>
<path d="M155.461 102.658L151.875 96.4307H144.702" stroke="#263238" stroke-linecap="round" stroke-linejoin="round"/>
<path d="M145.665 82.781H152.838L156.424 76.56L152.838 70.333H145.665L142.079 76.56L145.665 82.781Z" stroke="#263238" stroke-linecap="round" stroke-linejoin="round"/>
<path d="M156.501 76.5593H163.68L167.266 70.3323L163.68 64.1113H156.501L152.915 70.3323L156.501 76.5593Z" stroke="#263238" stroke-linecap="round" stroke-linejoin="round"/>
<path d="M156.428 77.523C156.959 77.523 157.39 77.0915 157.39 76.5593C157.39 76.0271 156.959 75.5957 156.428 75.5957C155.897 75.5957 155.466 76.0271 155.466 76.5593C155.466 77.0915 155.897 77.523 156.428 77.523Z" fill="#263238"/>
<path d="M141.445 64.4595C141.977 64.4595 142.407 64.0281 142.407 63.4959C142.407 62.9637 141.977 62.5322 141.445 62.5322C140.914 62.5322 140.483 62.9637 140.483 63.4959C140.483 64.0281 140.914 64.4595 141.445 64.4595Z" fill="#263238"/>
<path d="M154.499 102.657C154.498 102.465 154.554 102.277 154.66 102.116C154.766 101.956 154.917 101.831 155.094 101.757C155.271 101.682 155.466 101.663 155.654 101.7C155.843 101.737 156.016 101.83 156.152 101.966C156.287 102.102 156.38 102.275 156.417 102.464C156.454 102.652 156.434 102.848 156.36 103.025C156.286 103.203 156.161 103.354 156.001 103.46C155.841 103.566 155.653 103.622 155.461 103.621C155.335 103.621 155.21 103.596 155.093 103.548C154.976 103.499 154.87 103.428 154.781 103.339C154.691 103.249 154.621 103.143 154.572 103.026C154.524 102.909 154.499 102.784 154.499 102.657Z" fill="#263238"/>
<path d="M144.703 97.3941C145.235 97.3941 145.665 96.9626 145.665 96.4304C145.665 95.8982 145.235 95.4668 144.703 95.4668C144.172 95.4668 143.741 95.8982 143.741 96.4304C143.741 96.9626 144.172 97.3941 144.703 97.3941Z" fill="#263238"/>
<path d="M174.202 70.4973C174.201 70.305 174.257 70.1167 174.363 69.9563C174.469 69.7959 174.62 69.6706 174.797 69.5965C174.974 69.5223 175.169 69.5026 175.358 69.5398C175.546 69.577 175.719 69.6695 175.855 69.8055C175.991 69.9415 176.083 70.1149 176.12 70.3035C176.157 70.4922 176.138 70.6877 176.063 70.8651C175.989 71.0426 175.864 71.194 175.704 71.3C175.544 71.4061 175.356 71.4621 175.164 71.4609C174.909 71.4609 174.664 71.3594 174.484 71.1787C174.304 70.998 174.202 70.7529 174.202 70.4973Z" fill="#263238"/>
<path d="M151.803 97.3941C152.334 97.3941 152.765 96.9626 152.765 96.4304C152.765 95.8982 152.334 95.4668 151.803 95.4668C151.272 95.4668 150.841 95.8982 150.841 96.4304C150.841 96.9626 151.272 97.3941 151.803 97.3941Z" fill="#263238"/>
<path d="M166.306 70.4978C166.306 70.3072 166.362 70.1209 166.468 69.9624C166.573 69.804 166.724 69.6805 166.9 69.6075C167.075 69.5346 167.269 69.5155 167.455 69.5527C167.642 69.5899 167.813 69.6817 167.948 69.8164C168.082 69.9512 168.174 70.1229 168.211 70.3098C168.248 70.4967 168.229 70.6905 168.156 70.8666C168.084 71.0427 167.96 71.1932 167.802 71.299C167.644 71.4049 167.458 71.4614 167.268 71.4614C167.013 71.4614 166.768 71.3599 166.587 71.1792C166.407 70.9985 166.306 70.7534 166.306 70.4978Z" fill="#263238"/>
<path d="M155.462 89.002C155.462 88.8102 155.519 88.6227 155.625 88.4632C155.731 88.3037 155.883 88.1794 156.06 88.106C156.236 88.0326 156.431 88.0134 156.619 88.0509C156.807 88.0883 156.979 88.1806 157.115 88.3163C157.25 88.4519 157.342 88.6247 157.38 88.8128C157.417 89.0009 157.398 89.1959 157.324 89.3731C157.251 89.5503 157.127 89.7017 156.968 89.8083C156.809 89.9148 156.621 89.9717 156.43 89.9717C156.173 89.9717 155.927 89.8695 155.745 89.6877C155.564 89.5058 155.462 89.2591 155.462 89.002Z" fill="#263238"/>
<path d="M167.267 70.498H175.164" stroke="#263238" stroke-linecap="round" stroke-linejoin="round"/>
<path d="M156.429 89.002L151.802 96.4305" stroke="#263238" stroke-linecap="round" stroke-linejoin="round"/>
<path d="M145.664 70.333L141.444 63.4961" stroke="#263238" stroke-linecap="round" stroke-linejoin="round"/>
<path d="M196.54 45.8276C197.365 43.0254 199.088 40.5734 201.443 38.85C203.798 37.1266 206.654 36.2278 209.57 36.2923C212.486 36.3568 215.3 37.3812 217.576 39.207C219.853 41.0329 221.466 43.5589 222.167 46.3948" stroke="#263238" stroke-linecap="round" stroke-linejoin="round"/>
<path d="M207.776 62.7887C204.536 62.4174 201.546 60.8654 199.374 58.4282C197.203 55.991 196.002 52.8389 196.001 49.5723" stroke="#263238" stroke-linecap="round" stroke-linejoin="round"/>
<path d="M222.552 49.5723C222.556 51.3211 222.215 53.0536 221.55 54.6706C220.885 56.2876 219.908 57.7573 218.675 58.9956C217.442 60.234 215.978 61.2166 214.365 61.8874C212.753 62.5581 211.024 62.9038 209.278 62.9046" stroke="#263238" stroke-linecap="round" stroke-linejoin="round"/>
<path d="M223.308 41.1368C227.46 40.6062 230.243 40.8928 230.675 42.1309C231.521 44.6071 222.65 49.9498 210.82 54.0605C198.99 58.1711 188.73 59.4885 187.872 57.0062C187.409 55.6828 189.735 53.542 193.802 51.2061" stroke="#263238" stroke-linecap="round" stroke-linejoin="round"/>
<path d="M151.802 32.0254L153.075 34.6052L155.918 35.02L153.86 37.0326L154.348 39.8686L151.802 38.5269L149.257 39.8686L149.744 37.0326L147.687 35.02L150.53 34.6052L151.802 32.0254Z" stroke="#263238" stroke-linecap="round" stroke-linejoin="round"/>
<path d="M61.9153 25.1455C61.9137 27.4392 61.0038 29.6387 59.3852 31.2612C57.7665 32.8837 55.5715 33.7967 53.2816 33.7999C53.0015 33.7999 52.7276 33.7877 52.4597 33.7633C50.7932 33.605 49.2086 32.9651 47.8984 31.9216C46.5881 30.878 45.6088 29.4757 45.0793 27.885C44.5499 26.2943 44.4931 24.5838 44.9159 22.9615C45.3388 21.3391 46.223 19.8747 47.4611 18.7463C48.6992 17.6178 50.238 16.874 51.8902 16.6051C53.5425 16.3363 55.2371 16.554 56.7682 17.2318C58.2992 17.9097 59.6007 19.0184 60.5145 20.4233C61.4283 21.8282 61.9149 23.4687 61.9153 25.1455V25.1455Z" stroke="#263238" stroke-linecap="round" stroke-linejoin="round"/>
<path d="M60.5276 26.7128C60.5288 26.9795 60.4506 27.2405 60.3031 27.4624C60.1555 27.6844 59.9453 27.8573 59.6992 27.959C59.4531 28.0607 59.1823 28.0867 58.9215 28.0336C58.6606 27.9805 58.4214 27.8508 58.2345 27.6609C58.0475 27.4711 57.9213 27.2297 57.8719 26.9677C57.8225 26.7057 57.8522 26.4348 57.9571 26.1898C58.0621 25.9447 58.2375 25.7365 58.4611 25.5918C58.6847 25.447 58.9463 25.3723 59.2125 25.3772C59.5629 25.382 59.8974 25.5248 60.1436 25.7748C60.3897 26.0248 60.5277 26.3618 60.5276 26.7128V26.7128Z" stroke="#263238" stroke-linecap="round" stroke-linejoin="round"/>
<path d="M48.5081 30.11C48.5121 30.432 48.4443 30.7508 48.3094 31.0431C48.1746 31.3355 47.9762 31.5939 47.7287 31.7994C46.5966 30.8516 45.7283 29.6267 45.208 28.2437C45.543 28.0376 45.9291 27.9299 46.3222 27.9327C46.6087 27.9311 46.8927 27.9862 47.1578 28.0949C47.4229 28.2036 47.664 28.3637 47.8671 28.5661C48.0702 28.7684 48.2314 29.009 48.3414 29.2739C48.4514 29.5389 48.5081 29.823 48.5081 30.11Z" stroke="#263238" stroke-linecap="round" stroke-linejoin="round"/>
<path d="M59.2124 31.4458C57.6158 32.9605 55.4994 33.8033 53.3003 33.8C53.0202 33.8 52.7462 33.7878 52.4783 33.7634C52.4293 33.5287 52.4048 33.2896 52.4053 33.0498C52.4057 32.239 52.6794 31.4521 53.1821 30.8166C53.6848 30.1812 54.3871 29.7344 55.175 29.5487C55.9629 29.3631 56.7903 29.4494 57.5231 29.7937C58.2559 30.1381 58.8512 30.7202 59.2124 31.4458Z" stroke="#263238" stroke-linecap="round" stroke-linejoin="round"/>
<path d="M51.187 21.7177C52.2833 21.7177 53.1719 20.8276 53.1719 19.7295C53.1719 18.6314 52.2833 17.7412 51.187 17.7412C50.0908 17.7412 49.2021 18.6314 49.2021 19.7295C49.2021 20.8276 50.0908 21.7177 51.187 21.7177Z" stroke="#263238" stroke-linecap="round" stroke-linejoin="round"/>
<path d="M53.0269 25.377C53.0318 25.5601 52.982 25.7405 52.884 25.8951C52.7859 26.0498 52.6441 26.1716 52.4766 26.245C52.3091 26.3185 52.1235 26.3403 51.9436 26.3075C51.7637 26.2748 51.5976 26.1891 51.4665 26.0613C51.3355 25.9335 51.2455 25.7695 51.208 25.5902C51.1705 25.411 51.1872 25.2246 51.2561 25.0548C51.3249 24.8851 51.4426 24.7398 51.5943 24.6375C51.746 24.5352 51.9247 24.4805 52.1075 24.4805C52.3468 24.4819 52.5761 24.5761 52.7475 24.7432C52.9189 24.9104 53.0191 25.1375 53.0269 25.377V25.377Z" stroke="#263238" stroke-linecap="round" stroke-linejoin="round"/>
<path d="M60.2891 20.0959C60.0475 20.1752 59.7945 20.2144 59.5402 20.2117C59.2079 20.2117 58.8788 20.1461 58.5719 20.0185C58.2649 19.8909 57.9861 19.7039 57.7514 19.4682C57.5167 19.2326 57.3307 18.9528 57.2041 18.645C57.0774 18.3373 57.0127 18.0075 57.0135 17.6746C57.0072 17.5689 57.0072 17.463 57.0135 17.3574C58.3176 17.9802 59.4441 18.922 60.2891 20.0959V20.0959Z" stroke="#263238" stroke-linecap="round" stroke-linejoin="round"/>
<path d="M258.805 125.577L259.736 123.479L258.226 122.674C258.282 122.307 258.292 121.934 258.257 121.564L259.803 120.808L258.981 118.667L257.331 119.143C257.109 118.844 256.851 118.574 256.564 118.338L257.124 116.703L255.03 115.77L254.195 117.283C253.829 117.227 253.457 117.217 253.087 117.252L252.332 115.703L250.195 116.526L250.67 118.179C250.373 118.403 250.104 118.661 249.866 118.948L248.235 118.387L247.303 120.485L248.813 121.32C248.768 121.689 248.768 122.062 248.813 122.43L247.267 123.187L248.089 125.327L249.739 124.852C249.962 125.149 250.22 125.419 250.506 125.657L249.946 127.291L252.04 128.224L252.874 126.712C253.241 126.767 253.613 126.778 253.982 126.742L254.737 128.291L256.881 127.468L256.4 125.815C256.696 125.591 256.966 125.333 257.203 125.047L258.805 125.577ZM252.436 124.406C251.954 124.192 251.546 123.839 251.264 123.392C250.983 122.945 250.84 122.425 250.853 121.896C250.867 121.368 251.036 120.856 251.341 120.424C251.645 119.993 252.07 119.661 252.563 119.472C253.055 119.282 253.593 119.243 254.107 119.36C254.622 119.476 255.09 119.743 255.454 120.126C255.817 120.51 256.058 120.992 256.147 121.513C256.237 122.034 256.17 122.57 255.955 123.052C255.666 123.698 255.134 124.203 254.474 124.457C253.815 124.71 253.082 124.692 252.436 124.406V124.406Z" stroke="#263238" stroke-linecap="round" stroke-linejoin="round"/>
<path d="M247.681 136.341L248.941 133.493L246.895 132.359C246.967 131.858 246.981 131.35 246.938 130.846L249.038 129.821L247.918 126.943L245.677 127.553C245.373 127.148 245.022 126.782 244.63 126.461L245.397 124.241L242.554 122.972L241.421 125.028C240.921 124.956 240.415 124.941 239.911 124.985L238.889 122.881L235.984 123.997L236.63 126.247C236.225 126.552 235.858 126.902 235.534 127.29L233.348 126.534L232.057 129.382L234.109 130.517C234.034 131.017 234.02 131.525 234.066 132.029L231.966 133.042L233.08 135.951L235.327 135.304C235.63 135.709 235.98 136.078 236.368 136.402L235.607 138.616L238.45 139.885L239.583 137.829C240.083 137.901 240.589 137.916 241.093 137.872L242.116 139.976L245.02 138.86L244.368 136.61C244.774 136.307 245.142 135.957 245.464 135.567L247.681 136.341ZM239.029 134.749C238.376 134.457 237.824 133.977 237.444 133.37C237.063 132.764 236.871 132.058 236.891 131.342C236.911 130.626 237.142 129.931 237.556 129.347C237.969 128.763 238.547 128.314 239.215 128.059C239.883 127.803 240.612 127.751 241.309 127.91C242.006 128.069 242.641 128.432 243.132 128.952C243.624 129.473 243.951 130.127 244.071 130.833C244.191 131.54 244.1 132.266 243.808 132.92C243.416 133.796 242.692 134.481 241.796 134.824C240.9 135.167 239.905 135.14 239.029 134.749V134.749Z" stroke="#263238" stroke-linecap="round" stroke-linejoin="round"/>
<path d="M121.458 109.3C117.82 116.214 112.167 121.854 105.251 125.471C98.3345 129.088 90.4828 130.51 82.74 129.548C78.1318 128.981 73.6663 127.573 69.5642 125.395C68.7199 124.948 67.8979 124.474 67.0983 123.974C66.3006 123.48 65.5335 122.955 64.7907 122.413C63.8895 121.76 63.025 121.065 62.1969 120.339C62.1453 120.297 62.0965 120.253 62.0508 120.205C56.6526 115.422 52.7064 109.215 50.6631 102.292C48.6199 95.3692 48.562 88.0103 50.4961 81.0562C52.4301 74.1021 56.2782 67.8332 61.6004 62.9659C66.9227 58.0986 73.5045 54.8292 80.5939 53.5313C87.6832 52.2334 94.994 52.9594 101.691 55.6262C108.388 58.2931 114.201 62.7933 118.466 68.6125C122.73 74.4318 125.275 81.3354 125.808 88.5346C126.342 95.7337 124.842 102.938 121.482 109.324L121.458 109.3Z" fill="#92E3A9"/>
<g opacity="0.6">
<path opacity="0.6" d="M121.458 109.306C120.623 110.89 119.681 112.414 118.639 113.868L117.896 113.258L116.617 112.581L115.272 111.874L115.497 110.245L115.424 108.775C115.345 107.306 116.404 108.507 117.281 108.062C117.941 107.589 118.474 106.961 118.833 106.232C118.833 106.232 119.442 104.274 119.241 103.488C118.913 102.581 118.527 101.697 118.084 100.841L115.905 103.89L114.078 103.75L112.288 102.811L112.063 100.402L111.174 99.9381L110.802 98.5536L105.999 97.2058L105.451 96.2421C104.903 95.2785 102.692 94.7845 102.692 94.7845L103.234 93.5281L104.087 92.1253C104.945 90.7226 105.834 93.0524 105.834 93.0524L106.851 93.583L108.738 91.9972L109.238 89.7223L112.282 89.8992C112.222 89.5913 112.269 89.2721 112.415 88.9946C112.561 88.7172 112.798 88.4983 113.086 88.3745C114.109 87.9719 113.658 85.7458 113.268 84.9225C112.879 84.0991 111.442 84.7639 111.442 84.7639C111.442 84.7639 109.877 82.3792 109.664 81.4278C109.451 80.4763 112.647 80.8179 114.017 79.8603C115.387 78.9028 114.918 76.9999 114.249 76.9572C113.579 76.9145 115.558 72.627 119.363 73.8041C120.423 74.1334 121.092 74.0175 121.506 73.6516C124.375 79.1563 125.869 85.2753 125.861 91.4848C125.852 97.6944 124.341 103.809 121.458 109.306Z" fill="white"/>
<path opacity="0.6" d="M94.8322 92.7899L93.5292 94.4305C93.5292 94.4305 92.9751 93.107 92.1836 93.8206L90.9659 94.9062L90.083 97.3824L88.5 98.407L87.5319 97.9008L86.6186 97.4129L85.6262 96.8884L84.6763 98.718L83.9031 100.182C84.2799 100.9 84.7486 101.567 85.2974 102.164L86.9778 105.134L88.981 106.189C89.8342 106.221 90.6834 106.323 91.52 106.494L92.9264 107.232L92.4272 110.282C92.4272 110.282 91.3677 112.008 90.6615 111.532L89.9491 111.062L88.7923 115.075L88.7435 117.283C88.7435 117.283 88.0555 117.57 87.3614 117.802C86.6673 118.033 87.1057 117.911 85.6505 118.363C84.1953 118.814 84.311 118.796 83.1298 119.131C82.1229 119.484 81.154 119.938 80.2377 120.485L80.3412 122.608L77.5587 123.016L76 122.187L76.3836 120.845L76.5662 118.747L76.3531 117.18L75.6834 115.795L77.5587 114.093L77.1447 113.026L76.0792 110.904L73.8264 112.124L72.6695 112.733L70.0514 111.556L69.7652 109.965L68.8763 107.092L68.0604 105.311L66.6113 103.347L66.246 101.658L67.0619 100.109L67.4942 99.2913L66.1608 97.4922L65.7954 96.2114L63.5487 94.1682C63.5487 94.1682 64.2002 94.1255 64.0541 93.2168C63.908 92.308 65.3388 90.7772 65.3388 90.7772C66.1486 91.2041 68.5779 92.8996 68.5779 92.8996L70.7029 93.1924C70.7029 93.1924 71.1291 93.1924 71.5431 92.3873C72.0267 91.6468 72.5948 90.9653 73.2358 90.3564C73.2358 90.3564 72.2555 86.9471 72.9557 86.4896C73.6559 86.0322 74.3682 83.8 74.3682 83.8L74.9284 82.7327C74.9284 82.7327 73.6072 82.1533 73.3575 81.4519C73.1079 80.7505 69.8505 81.6837 69.8505 81.6837L67.6038 83.245L65.9111 84.6295L65.1439 86.081C65.1439 86.081 63.5792 84.1964 63.5731 85.2516C63.4537 86.3333 63.2169 87.3988 62.8668 88.4291C62.8668 88.4291 63.1895 88.5999 62.7633 89.4171C62.3371 90.2344 61.8744 90.1917 60.9367 90.3076C59.7143 90.3199 58.4929 90.2363 57.2835 90.0575C57.2835 90.0575 56.6746 92.3141 57.0948 92.7045L57.5088 93.0826C57.5088 93.0826 56.8573 94.7232 56.2119 94.3817L54.641 93.5522L52.443 94.4427L50.0076 97.1384L49.4718 97.0591C47.9791 87.0305 50.4992 76.8171 56.4839 68.6397C62.4687 60.4622 71.4342 54.982 81.4311 53.3906C81.5711 54.0005 81.7233 54.5738 81.7233 54.5738L81.1145 57.5867L80.3351 59.0748L79.6654 60.3495L78.7216 62.1426L81.0718 64.3748L80.5543 67.0157L79.3061 67.8146L78.9286 69.7968L81.1754 74.1942L81.7842 75.9202C81.4083 76.7465 81.2231 77.647 81.2423 78.5549C81.2423 78.5549 81.5163 80.2016 82.7158 80.8542C83.9152 81.5068 85.4922 82.2753 85.4922 82.2753L85.3643 84.7148L84.8225 85.3247L85.7236 87.9534C88.4695 89.0329 88.2077 89.9355 88.4696 89.0329L88.7375 88.1364L90.6067 87.4594L92.9873 90.3076C93.2643 90.3039 93.5378 90.3701 93.7826 90.5001C94.0273 90.6302 94.2354 90.8198 94.3877 91.0517C95.0575 91.9299 96.1412 91.1675 94.8322 92.7899Z" fill="white"/>
<path opacity="0.6" d="M62.5619 114.051C62.6288 114.917 61.5329 116.003 61.5329 116.003L62.4279 116.472L62.7019 118.912L62.0261 120.205C57.2371 115.967 53.5843 110.595 51.4014 104.579L51.8885 101.993L54.0378 101.689C54.0378 101.689 55.9618 100.408 56.8142 100.749C57.6666 101.091 58.4459 103.189 58.4459 103.189C58.4459 103.189 59.0548 106.019 58.9756 105.964H58.9391H58.9878L59.8646 106.427L60.1142 107.544L58.8965 109.861H56.9177C56.9177 109.861 56.528 109.654 56.4915 110.672C56.5232 111.026 56.6304 111.368 56.8059 111.677C56.9813 111.985 57.2209 112.252 57.5083 112.459L59.6271 111.916L60.1934 109.721L62.2574 109.257C62.2574 109.257 61.9591 110.605 62.4462 110.861L62.9394 111.124L63.2316 112.734C63.0119 112.873 62.8338 113.068 62.7159 113.3C62.598 113.532 62.5448 113.791 62.5619 114.051Z" fill="white"/>
<path opacity="0.6" d="M72.6097 117.497C72.4209 116.978 72.3418 116.521 71.0449 115.838C69.748 115.155 69.8272 115.399 69.3157 115.966C69.096 116.258 68.7953 116.479 68.4511 116.602C68.1068 116.725 67.7342 116.743 67.3795 116.655C66.5332 116.466 66.9716 117.43 66.9716 117.43L67.1786 120.028L64.7432 122.412C65.486 122.955 66.2531 123.48 67.0508 123.974L67.5622 122.4L71.5564 123.59C70.71 123.333 71.2093 122.175 71.2093 122.175L70.3569 121.723C70.3569 121.723 72.8289 118.015 72.6097 117.497Z" fill="white"/>
<path opacity="0.6" d="M97.7896 103.956L96.4805 102.633L94.9827 103.109L94.3739 104.328L93.9111 105.207L94.52 106.426L95.7377 107.902L96.4379 106.579C96.4379 106.579 98.368 106.579 99.3726 105.463C100.377 104.347 97.7896 103.956 97.7896 103.956Z" fill="white"/>
<path opacity="0.6" d="M93.9482 97.9854L96.3837 99.2723L96.475 98.699C96.6062 98.2384 96.8323 97.8104 97.1387 97.4426L95.2695 95.4727L93.9482 97.9854Z" fill="white"/>
<path opacity="0.6" d="M93.1143 126.383L92.4141 125.353L91.5982 124.926H89.108L87.6893 127.622C87.6893 127.622 86.3376 127.432 84.5476 127.28C82.7575 127.128 83.2081 127.859 83.2081 127.859L82.7393 129.549C87.2419 130.109 91.8079 129.865 96.2256 128.829C95.7114 128.472 95.1789 128.142 94.6304 127.841L93.1143 126.383Z" fill="white"/>
</g>
<path d="M121.458 109.3C117.82 116.214 112.167 121.854 105.251 125.471C98.3345 129.088 90.4828 130.51 82.74 129.548C78.1319 128.981 73.6663 127.573 69.5642 125.395C68.7199 124.948 67.8979 124.474 67.0983 123.974C66.3006 123.48 65.5335 122.955 64.7907 122.413C63.8895 121.76 63.025 121.065 62.1969 120.339C62.1453 120.297 62.0965 120.253 62.0508 120.205V120.205C56.6526 115.422 52.7064 109.215 50.6631 102.292C48.6199 95.3692 48.562 88.0103 50.4961 81.0562C52.4301 74.1021 56.2782 67.8332 61.6004 62.9659C66.9227 58.0986 73.5045 54.8292 80.5939 53.5313C87.6832 52.2334 94.994 52.9594 101.691 55.6262C108.388 58.2931 114.201 62.7932 118.466 68.6125C122.73 74.4318 125.275 81.3354 125.808 88.5346C126.342 95.7337 124.842 102.938 121.482 109.324L121.458 109.3Z" stroke="#263238" stroke-linecap="round" stroke-linejoin="round"/>
<path d="M96.2256 128.829C91.8079 129.865 87.2419 130.109 82.7393 129.549L83.2081 127.859C83.2081 127.859 82.7636 127.121 84.5476 127.28C86.3316 127.439 87.6893 127.622 87.6893 127.622L89.108 124.926H91.5982L92.4141 125.353L93.1143 126.383L94.6304 127.841C95.1789 128.142 95.7114 128.472 96.2256 128.829V128.829Z" stroke="#263238" stroke-linecap="round" stroke-linejoin="round"/>
<path d="M121.592 73.6821C121.184 74.048 120.515 74.1639 119.455 73.8346C115.65 72.6575 113.671 76.9389 114.341 76.9877C115.01 77.0365 115.473 78.9638 114.103 79.8908C112.733 80.8179 109.543 80.5007 109.75 81.4583C109.957 82.4158 111.528 84.7883 111.528 84.7883C111.528 84.7883 112.928 84.1357 113.354 84.953C113.78 85.7702 114.201 88.0024 113.172 88.405C112.884 88.5288 112.647 88.7477 112.501 89.0251C112.355 89.3026 112.308 89.6218 112.368 89.9297L109.324 89.7529L108.824 92.0278L106.937 93.6135L105.926 93.0768C105.926 93.0768 105.031 90.7531 104.173 92.1558L103.326 93.5525L102.778 94.8089C102.778 94.8089 104.988 95.309 105.543 96.2726L106.091 97.2302L110.888 98.5841L111.266 99.9625L112.149 100.432L112.374 102.835L114.164 103.78L115.991 103.921L118.177 100.871C118.619 101.727 119.003 102.611 119.327 103.518C119.546 104.305 118.925 106.263 118.925 106.263C118.565 106.993 118.03 107.621 117.367 108.092C116.496 108.538 115.431 107.336 115.51 108.806L115.583 110.276L115.357 111.898L116.703 112.612L117.982 113.289L118.724 113.899" stroke="#263238" stroke-linecap="round" stroke-linejoin="round"/>
<path d="M49.4717 97.0591L50.0075 97.1628L52.4429 94.4671L54.6349 93.5766L56.2057 94.4061C56.8572 94.7537 57.5087 93.1131 57.5087 93.1131L57.0886 92.7288C56.6685 92.3446 57.2834 90.0819 57.2834 90.0819C58.4925 90.2638 59.714 90.3495 60.9366 90.3381C61.8986 90.2222 62.3613 90.2588 62.7632 89.4476C63.165 88.6365 62.8667 88.4596 62.8667 88.4596C63.2197 87.4301 63.4566 86.3643 63.573 85.282C63.573 84.2269 65.1439 86.1115 65.1439 86.1115L65.911 84.6477L67.6341 83.2816L69.8747 81.7263C69.8747 81.7263 73.1322 80.7871 73.3818 81.4946C73.6314 82.2021 74.9527 82.7754 74.9527 82.7754L74.3925 83.8366C74.3925 83.8366 73.674 86.0627 72.9799 86.5262C72.2858 86.9897 73.26 90.3991 73.26 90.3991C72.619 91.0079 72.051 91.6895 71.5674 92.43C71.1412 93.2412 70.7271 93.2351 70.7271 93.2351L68.6022 92.9423C68.6022 92.9423 66.1667 91.2468 65.363 90.8199C65.363 90.8199 63.9383 92.3507 64.0783 93.2595C64.2184 94.1682 63.5791 94.217 63.5791 94.217L65.8197 96.2601L66.185 97.5409L67.5245 99.334L67.0922 100.157L66.2763 101.707L66.6356 103.396L68.0908 105.354L68.9006 107.135L69.7895 110.013L70.0757 111.605L72.6938 112.782L73.8506 112.172L76.1034 110.953L77.1689 113.075L77.589 114.142L75.7137 115.838L76.3774 117.228L76.5966 118.796L76.4078 120.894L76.0243 122.236L77.589 123.065L80.3655 122.656L80.2681 120.534C81.1819 119.986 82.1489 119.533 83.1541 119.18C84.3718 118.838 84.2196 118.863 85.6748 118.412C87.13 117.96 86.6855 118.082 87.3857 117.85C88.0859 117.619 88.7678 117.332 88.7678 117.332L88.8165 115.124L89.9734 111.111L90.6857 111.581C91.392 112.056 92.4514 110.33 92.4514 110.33L92.9507 107.281L91.5442 106.537C90.7073 106.369 89.8582 106.269 89.0053 106.238L87.0021 105.177L85.3277 102.213C84.7781 101.615 84.3075 100.949 83.9273 100.231L84.7006 98.7668L85.6504 96.9371L86.6429 97.4616L87.5562 97.9435L88.5243 98.4558L90.1073 97.425L90.9902 94.9489L92.2079 93.8694C93.0055 93.1497 93.5535 94.4793 93.5535 94.4793L94.8321 92.7898C96.1412 91.1492 95.0635 91.9116 94.3937 91.0699C94.2417 90.8364 94.0328 90.6456 93.7867 90.5154C93.5406 90.3852 93.2655 90.32 92.9872 90.3259L90.6066 87.4776L88.7374 88.1546L88.4695 89.0512C88.2076 89.9477 88.4695 89.0512 85.7296 87.9656L84.8224 85.343L85.3642 84.7331L85.4982 82.2935C85.4982 82.2935 83.9152 81.519 82.7218 80.8725C81.5284 80.226 81.2422 78.5732 81.2422 78.5732C81.223 77.6653 81.4082 76.7648 81.7841 75.9384L81.1753 74.2063L78.9286 69.809L79.3121 67.8329L80.6151 67.0096L81.1326 64.3687L78.7824 62.1365L79.7262 60.3434L80.3959 59.0687L81.1326 57.5623L81.7415 54.5433C81.7415 54.5433 81.5954 53.9883 81.4493 53.3662" stroke="#263238" stroke-linecap="round" stroke-linejoin="round"/>
<path d="M62.2036 120.339C62.1581 120.283 62.1048 120.234 62.0453 120.193V120.193L62.7212 118.9L62.4533 116.46L61.5582 115.991C61.5582 115.991 62.6481 114.905 62.5811 114.039C62.5688 113.78 62.6262 113.522 62.7472 113.292C62.8682 113.063 63.0484 112.87 63.2691 112.734L62.9769 111.13L62.4898 110.867C62.0027 110.611 62.295 109.257 62.295 109.257L60.2126 109.666L59.6464 111.862L57.5275 112.404C57.2409 112.198 57.0018 111.932 56.8264 111.624C56.651 111.317 56.5433 110.976 56.5107 110.623C56.5473 109.605 56.943 109.812 56.943 109.812H58.8975L60.1152 107.489L59.8717 106.379L58.9888 105.915" stroke="#263238" stroke-linecap="round" stroke-linejoin="round"/>
<path d="M58.9639 105.915C59.0613 105.964 58.4342 103.14 58.4342 103.14C58.4342 103.14 57.6549 101.066 56.8025 100.7C55.95 100.335 54.026 101.64 54.026 101.64L51.8767 101.945L51.3896 104.531" stroke="#263238" stroke-linecap="round" stroke-linejoin="round"/>
<path d="M67.6169 122.4L67.1054 123.974C66.3078 123.48 65.5407 122.955 64.7979 122.412L67.2333 120.028L67.0263 117.43C67.0263 117.43 66.5879 116.466 67.4342 116.655C67.7889 116.743 68.1615 116.725 68.5058 116.602C68.85 116.479 69.1507 116.258 69.3704 115.966C69.8758 115.399 69.8088 115.155 71.0996 115.838C72.3904 116.521 72.4756 116.978 72.6644 117.497C72.8531 118.015 70.442 121.723 70.442 121.723L71.2944 122.175C71.2944 122.175 70.7952 123.333 71.6415 123.59L67.6169 122.4Z" stroke="#263238" stroke-linecap="round" stroke-linejoin="round"/>
<path d="M94.9845 103.11L96.4823 102.634L97.7913 103.957C97.7913 103.957 100.379 104.299 99.3683 105.427C98.3576 106.555 96.4336 106.543 96.4336 106.543L95.7455 107.867L94.5278 106.391L93.9189 105.171L94.3817 104.293L94.9845 103.11Z" stroke="#263238" stroke-linecap="round" stroke-linejoin="round"/>
<path d="M97.1387 97.4426C96.8323 97.8104 96.6062 98.2384 96.475 98.699L96.3837 99.2723L93.9482 97.9854L95.2695 95.4727L97.1387 97.4426Z" stroke="#263238" stroke-linecap="round" stroke-linejoin="round"/>
<path d="M229.263 241.31C225.999 244.03 200.859 261.309 164.985 258.528C163.055 242.17 155.694 174.972 164.066 164.433C164.066 164.433 184.377 154.73 203.088 158.804C221.798 162.878 229.08 166.781 230.414 170.16C231.424 172.715 229.981 220.299 229.263 241.31Z" fill="#263238"/>
<path d="M202.465 165.977C191.688 175.327 177.806 173.351 178.111 166.172C178.159 165.05 179.359 163.66 179.359 163.66L178.939 163.013L177.112 160.25C175.779 158.183 174.11 155.585 172.947 153.694C171.973 152.084 196.261 137.117 196.261 145.722C196.261 157.847 202.203 160.128 202.203 160.128C204.444 161.037 206.557 162.464 202.465 165.977Z" fill="white" stroke="#263238" stroke-linecap="round" stroke-linejoin="round"/>
<path d="M209.278 184.499C209.278 184.499 207.105 191.958 208.14 194.099" stroke="white" stroke-linecap="round" stroke-linejoin="round"/>
<path d="M206.741 162.817C206.741 170.026 185.29 177.077 179.007 169.856" stroke="white" stroke-linecap="round" stroke-linejoin="round"/>
<path d="M189.095 154.511C189.095 154.511 187.682 159.933 180.985 164.178C180.665 163.628 180.15 163.221 179.542 163.037C179.34 163.004 179.135 163.004 178.933 163.037L177.106 160.274C180.547 157.774 189.095 154.511 189.095 154.511Z" fill="#263238"/>
<path d="M192.104 147.838C192.104 147.838 192.031 153.193 190.887 154.285C182.362 162.445 174.088 163.091 172.712 160.932C163.494 146.447 165.673 142.636 164.73 140.159C163.067 135.805 161.028 128.693 161.929 124.387C163.938 114.763 182.021 107.31 191.544 116.977C196.111 121.612 197.554 131.657 196.592 140.025" fill="white"/>
<path d="M192.104 147.838C192.104 147.838 192.031 153.193 190.887 154.285C182.362 162.445 174.088 163.091 172.712 160.932C163.494 146.447 165.673 142.636 164.73 140.159C163.067 135.805 161.028 128.693 161.929 124.387C163.938 114.763 182.021 107.31 191.544 116.977C196.111 121.612 197.554 131.657 196.592 140.025" stroke="#263238" stroke-linecap="round" stroke-linejoin="round"/>
<path d="M165.898 135.684C165.898 135.684 163.366 134.543 162.812 135.903" stroke="#263238" stroke-linecap="round" stroke-linejoin="round"/>
<path d="M172.054 135.738C172.054 135.738 177.339 133.524 179.707 136.213" stroke="#263238" stroke-linecap="round" stroke-linejoin="round"/>
<path d="M177.898 139.513C177.984 140.312 177.594 141.001 177.034 141.062C176.474 141.123 175.938 140.532 175.853 139.739C175.767 138.946 176.157 138.251 176.717 138.19C177.277 138.129 177.807 138.72 177.898 139.513Z" fill="#263238"/>
<path d="M167.592 139.751C167.677 140.543 167.287 141.239 166.727 141.3C166.167 141.361 165.631 140.769 165.546 139.97C165.461 139.171 165.85 138.488 166.41 138.421C166.971 138.354 167.47 138.964 167.592 139.751Z" fill="#263238"/>
<path d="M167.823 137.672C168.56 138.861 168.158 140.892 167.184 143.673C166.21 146.454 167.068 147.473 170.807 147.753" fill="white"/>
<path d="M167.823 137.672C168.56 138.861 168.158 140.892 167.184 143.673C166.21 146.454 167.068 147.473 170.807 147.753" stroke="#263238" stroke-linecap="round" stroke-linejoin="round"/>
<path d="M170.806 152.559C170.806 152.559 175.677 152.114 177.905 150.888" stroke="#263238" stroke-linecap="round" stroke-linejoin="round"/>
<path d="M201.687 124.924C201.687 121.296 198.119 113.867 191.854 113.032C188.261 109.262 183.129 107.872 176.906 109.305C162.531 112.617 158.153 126.84 157.52 129.194C157.459 129.413 157.435 129.535 157.435 129.535L161.283 128.553L159.59 131.822L161.605 133.158L161.149 133.67L163.481 135.927L162.75 131.804C163.201 129.139 166.257 125.425 166.257 125.425C165.142 126.872 164.448 128.601 164.254 130.42C165.472 127.254 172.778 124.321 172.778 124.321C170.403 126.242 169.125 130.017 169.125 130.017C171.384 127.236 176.663 125.437 180.036 124.479C181.18 127.23 182.983 130.102 185.57 131.694C188.006 133.195 187.914 136.287 187.914 136.287C190.538 138.111 192.469 140.769 193.394 143.831L196.341 147.869C196.341 147.869 201.687 141.306 201.687 124.924Z" fill="#263238"/>
<path d="M189.261 137.311C188.28 135.189 191.86 129.462 194.393 130.17C195.818 130.572 197.681 133.176 198.046 135.909C198.412 138.641 196.482 143.837 194.424 144.966C193.115 145.691 192.043 143.703 192.043 143.703" fill="white"/>
<path d="M189.261 137.311C188.28 135.189 191.86 129.462 194.393 130.17C195.818 130.572 197.681 133.176 198.046 135.909C198.412 138.641 196.482 143.837 194.424 144.966C193.115 145.691 192.043 143.703 192.043 143.703" stroke="#263238" stroke-linecap="round" stroke-linejoin="round"/>
<path d="M33.9268 240.823L102.722 224.71L246.22 241.311L209.28 266.622L33.9268 240.823Z" fill="white"/>
<path d="M33.9268 240.823L102.722 224.71L246.22 241.311" fill="white"/>
<path d="M33.9268 240.823L102.722 224.71L246.22 241.311" stroke="#263238" stroke-linecap="round" stroke-linejoin="round"/>
<path d="M93.4619 244.056L121.311 231.724L156.522 233.547L140.862 246.959L93.4619 244.056Z" fill="white" stroke="#263238" stroke-linecap="round" stroke-linejoin="round"/>
<path d="M165.429 163.83C156.491 167.489 154.567 175.717 139.394 208.23C139.394 208.23 132.648 209.615 129.043 217.818C125.439 226.021 131.448 232.498 138.432 232.279C138.432 232.279 141.226 234.718 146.956 234.468C152.685 234.218 178.008 195.404 178.008 195.404L165.429 163.83Z" fill="#263238"/>
<path d="M142.048 210.127C146.042 213.695 148.337 218.922 147.12 224.71" stroke="white" stroke-linecap="round" stroke-linejoin="round"/>
<path d="M145.903 211.841C145.903 211.841 150.817 212.914 151.572 219.214" stroke="white" stroke-linecap="round" stroke-linejoin="round"/>
<path d="M160.285 193.422C157.966 187.691 157.165 181.458 157.959 175.326" stroke="white" stroke-linecap="round" stroke-linejoin="round"/>
<path d="M159.571 185.134C159.194 187.695 161.836 201.333 161.824 215.671" stroke="white" stroke-linecap="round" stroke-linejoin="round"/>
<path d="M226.335 166.514C237.508 172.143 238.841 189.446 228.296 210.127C220.849 224.734 210.572 246.294 204.069 247.74C197.566 249.185 191.222 245.129 191.222 245.129C191.222 245.129 185.742 244.873 184.086 240.97C179.556 230.278 191.076 216.824 195.606 220.044C195.606 220.044 210.066 188.537 212.703 186.549" fill="#263238"/>
<path d="M183.05 234.48C181.553 227.125 193.115 218.44 195.605 220.044C195.605 220.044 204.196 220.532 205.481 226.478" stroke="white" stroke-linecap="round" stroke-linejoin="round"/>
<path d="M214.522 236.054C219.552 227.167 228.295 210.127 228.295 210.127" stroke="white" stroke-linecap="round" stroke-linejoin="round"/>
<path d="M195.599 220.044C195.599 220.044 201.62 216.44 206.114 219.855" stroke="white" stroke-linecap="round" stroke-linejoin="round"/>
<path d="M197.632 215.671C197.632 215.671 200.956 208.352 204.329 201.643C207.702 194.935 215.417 184.999 218.625 184.518" stroke="white" stroke-linecap="round" stroke-linejoin="round"/>
<path d="M134.175 228.796C133.452 228.76 132.746 228.567 132.105 228.228C121.755 222.819 113.705 213.877 108.859 207.461C106.973 205.009 105.236 202.445 103.659 199.783L106.149 189.152C106.149 189.152 108.487 195.251 117.882 201.247C127.277 207.242 138.438 209.218 142.048 215.274C145.245 220.562 139.613 229.094 134.175 228.796Z" fill="white"/>
<path opacity="0.4" d="M134.175 228.796C134.06 228.024 133.856 227.269 133.567 226.545C131.393 221.093 118.241 210.255 118.241 210.255C115.112 210.157 111.672 208.852 108.871 207.461C106.981 205.01 105.24 202.445 103.659 199.783L106.149 189.152C106.149 189.152 108.487 195.251 117.882 201.247C127.277 207.242 138.438 209.218 142.048 215.274C145.245 220.562 139.613 229.094 134.175 228.796Z" fill="#92E3A9"/>
<path d="M134.175 228.796C133.452 228.76 132.746 228.567 132.105 228.228C121.755 222.819 113.705 213.877 108.859 207.461C106.973 205.009 105.236 202.445 103.659 199.783L106.149 189.152C106.149 189.152 108.487 195.251 117.882 201.247C127.277 207.242 138.438 209.218 142.048 215.274C145.245 220.562 139.613 229.094 134.175 228.796Z" stroke="#263238" stroke-linecap="round" stroke-linejoin="round"/>
<path d="M110.735 199.155C110.735 199.155 109.45 204.845 106.065 203.571C104.239 202.882 100.719 197.417 100.056 194.66L110.735 199.155Z" fill="white" stroke="#263238" stroke-linecap="round" stroke-linejoin="round"/>
<path d="M95.8115 164.147L98.5758 162.714C98.5758 162.714 106.394 162.787 111.24 166.733C115.642 170.313 117.871 175.936 117.871 175.936C117.871 175.936 134.974 166.471 152.442 171.905L159.572 211.719L126.797 213.854L106.351 194.386L95.8115 164.147Z" fill="white" stroke="#263238" stroke-linecap="round" stroke-linejoin="round"/>
<path d="M161.818 213.28C161.818 213.28 157.976 213.164 152.837 213.335C145.068 213.579 134.334 214.457 129.426 217.318L129.195 217.238L124.701 215.671L124.61 215.537C123.782 214.317 117.103 204.711 107.562 200.802L94.0693 163.037C94.0693 163.037 108.073 163.647 115.727 176.321L119.569 177.711C119.569 177.711 142.431 170.929 155.23 173.369L161.818 213.28Z" fill="#92E3A9"/>
<path opacity="0.3" d="M124.61 215.537C123.782 214.317 117.103 204.711 107.562 200.802L94.0693 163.037C94.0693 163.037 108.073 163.647 115.727 176.321L124.61 215.537Z" fill="black" fill-opacity="0.7"/>
<path opacity="0.3" d="M152.837 213.335C145.067 213.579 134.333 214.457 129.426 217.318L129.194 217.238L120.22 179.083C120.22 179.083 127.563 177.431 129.822 178.266C129.84 178.266 144.745 189.299 152.837 213.335Z" fill="black" fill-opacity="0.7"/>
<path d="M161.818 213.28C161.818 213.28 157.976 213.164 152.837 213.335C145.068 213.579 134.334 214.457 129.426 217.318L129.195 217.238L124.701 215.671L124.61 215.537C123.782 214.317 117.103 204.711 107.562 200.802L94.0693 163.037C94.0693 163.037 108.073 163.647 115.727 176.321L119.569 177.711C119.569 177.711 142.431 170.929 155.23 173.369L161.818 213.28Z" stroke="#263238" stroke-linecap="round" stroke-linejoin="round"/>
<path d="M119.583 177.711L128.393 214.323" stroke="#263238" stroke-linecap="round" stroke-linejoin="round"/>
<path d="M124.702 215.672L116.147 179.084" stroke="#263238" stroke-linecap="round" stroke-linejoin="round"/>
<path d="M102.954 199.838C100.999 199.296 97.0599 187.525 98.8682 182.462C98.8682 182.462 101.011 178.736 101.913 178.48C103.276 178.083 108.781 178.199 108.519 179.126C107.91 181.273 103.648 181.237 103.648 181.237L102.278 183.749L102.339 185.134C102.339 185.134 104.324 183.682 105.054 183.719C106.394 184.218 107.69 184.83 108.927 185.549C110.248 186.25 111.058 186.628 110.753 187.268C109.773 189.379 105.596 187.878 105.596 187.878L104.025 190.245C104.025 190.245 105.541 190.513 106.211 190.586C106.881 190.659 112.379 194.331 112.215 194.795C111.563 196.588 106.339 194.648 106.339 194.648L105.414 195.417C105.414 195.417 109.268 196.417 109.676 196.563C110.284 196.789 112.635 198.594 112.598 198.802C112.312 200.387 109.079 199.222 109.079 199.222L106.254 199.106C105.82 199.487 105.299 199.755 104.738 199.887" fill="white"/>
<path d="M102.954 199.838C100.999 199.296 97.0599 187.525 98.8682 182.462C98.8682 182.462 101.011 178.736 101.913 178.48C103.276 178.083 108.781 178.199 108.519 179.126C107.91 181.273 103.648 181.237 103.648 181.237L102.278 183.749L102.339 185.134C102.339 185.134 104.324 183.682 105.054 183.719C106.394 184.218 107.69 184.83 108.927 185.549C110.248 186.25 111.058 186.628 110.753 187.268C109.773 189.379 105.596 187.878 105.596 187.878L104.025 190.245C104.025 190.245 105.541 190.513 106.211 190.586C106.881 190.659 112.379 194.331 112.215 194.795C111.563 196.588 106.339 194.648 106.339 194.648L105.414 195.417C105.414 195.417 109.268 196.417 109.676 196.563C110.284 196.789 112.635 198.594 112.598 198.802C112.312 200.387 109.079 199.222 109.079 199.222L106.254 199.106C105.82 199.487 105.299 199.755 104.738 199.887" stroke="#263238" stroke-linecap="round" stroke-linejoin="round"/>
<path d="M102.338 185.134C102.338 185.134 100.511 186.671 100.036 187.116C99.5612 187.561 99.6829 188.946 99.6829 188.946" stroke="#263238" stroke-linecap="round" stroke-linejoin="round"/>
<path d="M101.011 192.092C101.011 193.647 102.046 194.586 102.527 195.086C103.008 195.586 101.76 196.916 103.136 197.922" stroke="#263238" stroke-linecap="round" stroke-linejoin="round"/>
<path d="M191.196 241.201C187.33 242.256 183.129 235.45 178.002 228.021C174.617 223.142 170.83 217.94 166.476 214.603C166.129 214.341 165.776 214.085 165.423 213.841L167.968 201.033C173.253 203.808 176.529 208.254 182.014 212.822C190.843 220.184 198.667 224.703 200.834 227.96C203.002 231.217 197.821 239.39 191.196 241.201Z" fill="white"/>
<path opacity="0.4" d="M178.001 228.016C174.616 223.136 170.829 217.934 166.476 214.598C167.049 214.627 167.623 214.54 168.162 214.342C168.162 214.342 175.042 219.935 178.001 228.016Z" fill="#92E3A9"/>
<path d="M191.196 241.201C187.33 242.256 183.129 235.45 178.002 228.021C174.617 223.142 170.83 217.94 166.476 214.603C166.129 214.341 165.776 214.085 165.423 213.841L167.968 201.033C173.253 203.808 176.529 208.254 182.014 212.822C190.843 220.184 198.667 224.703 200.834 227.96C203.002 231.217 197.821 239.39 191.196 241.201Z" stroke="#263238" stroke-linecap="round" stroke-linejoin="round"/>
<path d="M169.418 213.335C169.153 213.808 168.717 214.162 168.2 214.323C168.063 214.377 167.922 214.424 167.78 214.463H167.664C163.579 215.53 154.385 213.31 154.385 213.31C154.385 213.31 148.363 210.444 147.998 209.767C147.743 209.23 147.518 208.681 147.322 208.12L147.158 207.638C147.158 207.638 144.99 206.418 144.722 205.467C144.454 204.516 143.998 204.247 145.331 204.076C146.665 203.906 153.855 204.076 153.855 204.076L146.031 200.881C146.031 200.881 140.85 198.264 140.369 197.343C139.888 196.422 139.285 195.812 141.934 196.178C144.582 196.544 150.366 198.228 150.366 198.228L154.896 199.191L150.366 197.258C150.366 197.258 141.453 196.178 143.139 193.403H148.199C151.065 193.53 153.916 193.893 156.723 194.489C158.196 194.94 167.938 201.003 167.938 201.003" fill="white"/>
<path opacity="0.4" d="M167.626 214.487C163.541 215.555 154.347 213.335 154.347 213.335C154.347 213.335 148.325 210.468 147.96 209.791C147.705 209.255 147.48 208.705 147.284 208.145L154.676 208.974C154.417 209.44 154.282 209.965 154.282 210.499C154.282 211.032 154.417 211.557 154.676 212.023C155.498 213.487 164.862 214.988 167.626 214.487Z" fill="#92E3A9"/>
<path d="M169.418 213.335C169.153 213.808 168.717 214.162 168.2 214.323C168.063 214.377 167.922 214.424 167.78 214.463H167.664C163.579 215.53 154.385 213.31 154.385 213.31C154.385 213.31 148.363 210.444 147.998 209.767C147.743 209.23 147.518 208.681 147.322 208.12L147.158 207.638C147.158 207.638 144.99 206.418 144.722 205.467C144.454 204.516 143.998 204.247 145.331 204.076C146.665 203.906 153.855 204.076 153.855 204.076L146.031 200.881C146.031 200.881 140.85 198.264 140.369 197.343C139.888 196.422 139.285 195.812 141.934 196.178C144.582 196.544 150.366 198.228 150.366 198.228L154.896 199.191L150.366 197.258C150.366 197.258 141.453 196.178 143.139 193.403H148.199C151.065 193.53 153.916 193.893 156.723 194.489C158.196 194.94 167.938 201.003 167.938 201.003" stroke="#263238" stroke-linecap="round" stroke-linejoin="round"/>
<path d="M147.12 207.663L156.022 208.974" stroke="#263238" stroke-linecap="round" stroke-linejoin="round"/>
<path d="M58.4521 234.949L80.7427 241.658L121.537 232.333C121.537 232.333 96.6158 225.228 96.3844 225.399C96.153 225.569 58.4521 234.949 58.4521 234.949Z" fill="#92E3A9"/>
<path opacity="0.3" d="M58.4521 234.949L80.7427 241.658L121.537 232.333C121.537 232.333 96.6158 225.228 96.3844 225.399C96.153 225.569 58.4521 234.949 58.4521 234.949Z" fill="black" fill-opacity="0.7"/>
<path d="M58.4521 234.949L80.7427 241.658L121.537 232.333C121.537 232.333 96.6158 225.228 96.3844 225.399C96.153 225.569 58.4521 234.949 58.4521 234.949Z" stroke="#263238" stroke-linecap="round" stroke-linejoin="round"/>
<path d="M58.7672 227.082C57.2086 227.192 56.8128 232.839 58.4506 234.95L94.465 227.46L97.351 220.617L58.7672 227.082Z" fill="#92E3A9"/>
<path opacity="0.3" d="M58.7672 227.082C57.2086 227.192 56.8128 232.839 58.4506 234.95L94.465 227.46L97.351 220.617L58.7672 227.082Z" fill="black" fill-opacity="0.7"/>
<path d="M58.7672 227.082C57.2086 227.192 56.8128 232.839 58.4506 234.95L94.465 227.46L97.351 220.617L58.7672 227.082Z" stroke="#263238" stroke-linecap="round" stroke-linejoin="round"/>
<path d="M119.789 227.003C119.789 227.003 119.253 229.973 119.6 231.797L80.6996 240.622L60.193 234.584C60.193 234.584 58.062 230.809 59.919 227.875L97.3886 221.508L119.789 227.003Z" fill="white" stroke="#263238" stroke-linecap="round" stroke-linejoin="round"/>
<path d="M58.7686 227.082L97.3523 220.617L121.311 226.698L81.0165 234.742L58.7686 227.082Z" fill="#92E3A9" stroke="#263238" stroke-linecap="round" stroke-linejoin="round"/>
<path d="M60.1377 230.692L80.5407 236.773L113.937 230.046" stroke="#263238" stroke-linecap="round" stroke-linejoin="round"/>
<path d="M119.49 230.668L83.5791 238.34" stroke="#263238" stroke-linecap="round" stroke-linejoin="round"/>
<path d="M60.626 233.065C60.9304 233.102 76.0059 237.749 76.0059 237.749" stroke="#263238" stroke-linecap="round" stroke-linejoin="round"/>
<path d="M116.556 229.259L119.411 228.796" stroke="#263238" stroke-linecap="round" stroke-linejoin="round"/>
<path d="M79.8782 238.896L78.3682 238.555" stroke="#263238" stroke-linecap="round" stroke-linejoin="round"/>
<path d="M59.9198 227.881C60.7172 228.803 61.1785 229.969 61.2283 231.187C61.2781 232.406 60.9133 233.606 60.1937 234.59C59.5273 233.609 59.1485 232.46 59.1 231.274C59.0516 230.089 59.3356 228.913 59.9198 227.881Z" fill="#263238"/>
<path opacity="0.3" d="M59.9198 227.881C60.7172 228.803 61.1785 229.969 61.2283 231.187C61.2781 232.406 60.9133 233.606 60.1937 234.59C59.5273 233.609 59.1485 232.46 59.1 231.274C59.0516 230.089 59.3356 228.913 59.9198 227.881Z" fill="white" fill-opacity="0.7"/>
<path d="M59.9198 227.881C60.7172 228.803 61.1785 229.969 61.2283 231.187C61.2781 232.406 60.9133 233.606 60.1937 234.59C59.5273 233.609 59.1485 232.46 59.1 231.274C59.0516 230.089 59.3356 228.913 59.9198 227.881V227.881Z" stroke="#263238" stroke-linecap="round" stroke-linejoin="round"/>
<path d="M143.255 236.773L182.191 238.377L178.398 251.801L130.505 249.972L143.255 236.773Z" fill="white"/>
<path opacity="0.4" d="M143.255 236.773L182.191 238.377L178.398 251.801L130.505 249.972L143.255 236.773Z" fill="#92E3A9"/>
<path d="M143.255 236.773L182.191 238.377L178.398 251.801L130.505 249.972L143.255 236.773Z" stroke="#263238" stroke-linecap="round" stroke-linejoin="round"/>
</svg>
