<svg width="14" height="24" viewBox="0 0 14 24" fill="none" xmlns="http://www.w3.org/2000/svg">
<path d="M13.4789 0.00511562L10.3667 0.00012207C6.87018 0.00012207 4.6106 2.31838 4.6106 5.90649V8.62973H1.48139C1.21099 8.62973 0.992023 8.84894 0.992023 9.11934V13.065C0.992023 13.3354 1.21124 13.5544 1.48139 13.5544H4.6106V23.5105C4.6106 23.7809 4.82957 23.9999 5.09997 23.9999H9.1827C9.4531 23.9999 9.67206 23.7807 9.67206 23.5105V13.5544H13.3308C13.6012 13.5544 13.8202 13.3354 13.8202 13.065L13.8217 9.11934C13.8217 8.98951 13.77 8.86517 13.6784 8.77329C13.5868 8.68141 13.4619 8.62973 13.3321 8.62973H9.67206V6.32121C9.67206 5.21164 9.93647 4.64837 11.3819 4.64837L13.4784 4.64762C13.7486 4.64762 13.9675 4.4284 13.9675 4.15825V0.494484C13.9675 0.224582 13.7488 0.00561498 13.4789 0.00511562Z" fill="white"/>
</svg>
