<svg width="25" height="24" viewBox="0 0 25 24" fill="none" xmlns="http://www.w3.org/2000/svg">
<path d="M12.481 0C9.22201 0 8.81301 0.0142502 7.53299 0.0725002C6.25548 0.131 5.38347 0.33325 4.62046 0.63C3.8312 0.9365 3.1617 1.3465 2.49469 2.01375C1.82718 2.68075 1.41718 3.35025 1.10968 4.13925C0.812173 4.9025 0.609671 5.77475 0.55217 7.05175C0.494919 8.33175 0.479919 8.741 0.479919 12C0.479919 15.259 0.49442 15.6668 0.55242 16.9468C0.611171 18.2243 0.813423 19.0962 1.10993 19.8592C1.41668 20.6485 1.82668 21.318 2.49394 21.985C3.1607 22.6525 3.8302 23.0635 4.61896 23.37C5.38247 23.6667 6.25473 23.869 7.53199 23.9275C8.81201 23.9858 9.22076 24 12.4795 24C15.7388 24 16.1466 23.9858 17.4266 23.9275C18.7041 23.869 19.5771 23.6667 20.3406 23.37C21.1296 23.0635 21.7981 22.6525 22.4649 21.985C23.1324 21.318 23.5424 20.6485 23.8499 19.8595C24.1449 19.0963 24.3474 18.224 24.4074 16.947C24.4649 15.667 24.4799 15.259 24.4799 12C24.4799 8.741 24.4649 8.332 24.4074 7.052C24.3474 5.7745 24.1449 4.9025 23.8499 4.1395C23.5424 3.35025 23.1324 2.68075 22.4649 2.01375C21.7974 1.34625 21.1299 0.93625 20.3399 0.63C19.5749 0.33325 18.7024 0.131 17.4248 0.0725002C16.1448 0.0142502 15.7373 0 12.4773 0H12.481ZM11.4045 2.1625C11.724 2.162 12.0805 2.1625 12.481 2.1625C15.6851 2.1625 16.0648 2.174 17.3301 2.2315C18.5001 2.285 19.1351 2.4805 19.5581 2.64475C20.1181 2.86225 20.5174 3.12225 20.9371 3.54225C21.3571 3.96225 21.6171 4.36225 21.8351 4.92225C21.9994 5.34475 22.1951 5.97975 22.2484 7.14975C22.3059 8.41475 22.3184 8.79475 22.3184 11.9972C22.3184 15.1997 22.3059 15.5797 22.2484 16.8447C22.1949 18.0147 21.9994 18.6497 21.8351 19.0723C21.6176 19.6322 21.3571 20.031 20.9371 20.4508C20.5171 20.8708 20.1184 21.1307 19.5581 21.3482C19.1356 21.5133 18.5001 21.7083 17.3301 21.7617C16.0651 21.8193 15.6851 21.8318 12.481 21.8318C9.27676 21.8318 8.89701 21.8193 7.63199 21.7617C6.46198 21.7077 5.82697 21.5122 5.40372 21.348C4.84371 21.1305 4.44371 20.8705 4.02371 20.4505C3.6037 20.0305 3.3437 19.6315 3.1257 19.0713C2.96145 18.6488 2.76569 18.0138 2.71244 16.8438C2.65494 15.5787 2.64344 15.1987 2.64344 11.9942C2.64344 8.78975 2.65494 8.41175 2.71244 7.14675C2.76594 5.97675 2.96145 5.34175 3.1257 4.91875C3.3432 4.35875 3.6037 3.95875 4.02371 3.53875C4.44371 3.11875 4.84371 2.85875 5.40372 2.64075C5.82673 2.47575 6.46198 2.28075 7.63199 2.227C8.73901 2.177 9.16801 2.162 11.4045 2.1595V2.1625ZM18.8866 4.155C18.0916 4.155 17.4466 4.79925 17.4466 5.5945C17.4466 6.3895 18.0916 7.0345 18.8866 7.0345C19.6816 7.0345 20.3266 6.3895 20.3266 5.5945C20.3266 4.7995 19.6816 4.1545 18.8866 4.1545V4.155ZM12.481 5.8375C9.07776 5.8375 6.31848 8.59675 6.31848 12C6.31848 15.4032 9.07776 18.1612 12.481 18.1612C15.8843 18.1612 18.6426 15.4032 18.6426 12C18.6426 8.59675 15.8841 5.8375 12.4808 5.8375H12.481ZM12.481 8C14.6901 8 16.4811 9.79075 16.4811 12C16.4811 14.209 14.6901 16 12.481 16C10.2718 16 8.481 14.209 8.481 12C8.481 9.79075 10.2718 8 12.481 8Z" fill="white"/>
</svg>
