<svg width="25" height="24" viewBox="0 0 25 24" fill="none" xmlns="http://www.w3.org/2000/svg">
<path d="M20.9633 20.3801H17.4013V14.8568C17.4013 13.5397 17.3776 11.8442 15.5487 11.8442C13.6935 11.8442 13.4096 13.2792 13.4096 14.7609V20.3797H9.84761V9.02154H13.2671V10.5738H13.315C13.6572 9.9944 14.1517 9.5178 14.7459 9.1947C15.34 8.87161 16.0115 8.71412 16.6889 8.73902C20.2992 8.73902 20.9648 11.0903 20.9648 14.1492L20.9633 20.3801ZM5.82849 7.46896C5.41966 7.46903 5.01998 7.34907 4.68001 7.12423C4.34004 6.89939 4.07506 6.57978 3.91854 6.20582C3.76202 5.83186 3.721 5.42034 3.80069 5.0233C3.88037 4.62627 4.07719 4.26154 4.36622 3.97525C4.65525 3.68896 5.02354 3.49396 5.4245 3.41492C5.82546 3.33587 6.24108 3.37633 6.61881 3.53118C6.99655 3.68602 7.31943 3.9483 7.54662 4.28484C7.77382 4.62138 7.89513 5.01707 7.8952 5.42187C7.89525 5.69065 7.84182 5.95681 7.73799 6.20515C7.63415 6.45348 7.48195 6.67914 7.29004 6.86923C7.09813 7.05932 6.87026 7.21012 6.61949 7.31302C6.36872 7.41592 6.09994 7.46891 5.82849 7.46896ZM7.60949 20.3801H4.04378V9.02154H7.60949V20.3801ZM22.7391 0.100255H2.25388C1.78892 0.0950592 1.34088 0.272852 1.00824 0.594563C0.675609 0.916274 0.485594 1.35558 0.479919 1.81596V22.1836C0.4854 22.6442 0.675303 23.0838 1.00793 23.4058C1.34055 23.7279 1.78869 23.906 2.25388 23.9011H22.7391C23.2052 23.9069 23.6546 23.7293 23.9886 23.4072C24.3225 23.0852 24.5137 22.6451 24.5201 22.1836V1.81449C24.5135 1.3532 24.3222 0.913392 23.9882 0.591689C23.6543 0.269985 23.205 0.0927006 22.7391 0.0987844" fill="white"/>
</svg>
