<svg width="31" height="24" viewBox="0 0 31 24" fill="none" xmlns="http://www.w3.org/2000/svg">
<path d="M9.95214 23.9009C21.1981 23.9009 27.3481 14.744 27.3481 6.80339C27.3481 6.5433 27.3427 6.28439 27.3309 6.02665C28.5247 5.17844 29.5623 4.11994 30.3807 2.91498C29.2852 3.39356 28.1063 3.71574 26.8696 3.86101C28.1319 3.11707 29.101 1.94024 29.5582 0.537333C28.3769 1.22563 27.0687 1.72588 25.6758 1.99597C24.5601 0.82796 22.9717 0.0974121 21.2129 0.0974121C17.8365 0.0974121 15.0985 2.78853 15.0985 6.10572C15.0985 6.57727 15.1521 7.03594 15.257 7.4759C10.1755 7.22459 5.66962 4.83343 2.65402 1.19751C2.12894 2.08554 1.82617 3.1171 1.82617 4.21778C1.82617 6.30258 2.90557 8.14305 4.54697 9.21976C3.54387 9.1893 2.60157 8.91866 1.77797 8.46819C1.77707 8.4934 1.77706 8.51799 1.77706 8.54493C1.77706 11.4551 3.88457 13.8849 6.68217 14.4355C6.16841 14.5731 5.62786 14.647 5.06996 14.647C4.6766 14.647 4.29336 14.6089 3.92086 14.5386C4.69924 16.9262 6.95636 18.6637 9.63236 18.7122C7.53976 20.3243 4.90367 21.2844 2.03867 21.2844C1.54577 21.2844 1.05883 21.2569 0.580261 21.2012C3.28616 22.9059 6.49917 23.9005 9.95247 23.9005" fill="white"/>
</svg>
