<svg width="30" height="21" viewBox="0 0 30 21" fill="none" xmlns="http://www.w3.org/2000/svg">
<path d="M28.9292 3.62445C28.7668 3.01947 28.4483 2.46777 28.0057 2.02456C27.563 1.58135 27.0117 1.26217 26.4069 1.09897C24.1808 0.500244 15.2573 0.500244 15.2573 0.500244C15.2573 0.500244 6.33369 0.500244 4.10758 1.09579C3.50255 1.25846 2.95097 1.57746 2.50824 2.02075C2.0655 2.46405 1.7472 3.01603 1.58529 3.62126C0.989746 5.85056 0.989746 10.5002 0.989746 10.5002C0.989746 10.5002 0.989746 15.1499 1.58529 17.376C1.91331 18.6053 2.88147 19.5735 4.10758 19.9015C6.33369 20.5002 15.2573 20.5002 15.2573 20.5002C15.2573 20.5002 24.1808 20.5002 26.4069 19.9015C27.6362 19.5735 28.6012 18.6053 28.9292 17.376C29.5248 15.1499 29.5248 10.5002 29.5248 10.5002C29.5248 10.5002 29.5248 5.85056 28.9292 3.62445ZM12.4229 14.7678V6.23273L19.8114 10.4684L12.4229 14.7678Z" fill="white"/>
</svg>
